<svg width="29" height="25" viewBox="0 0 29 25" fill="none" xmlns="http://www.w3.org/2000/svg">
<rect width="28.4675" height="24.2276" rx="4.84553" fill="#2F6C5D"/>
<path d="M22.4743 15.5385V13.4008H19.6914V12.764H17.5559V13.4008H16.9084V12.764H16.9069V12.3756H19.9065C20.0206 12.3756 20.1061 12.3927 20.1631 12.4268C20.2179 12.4584 20.2617 12.506 20.2886 12.5632C20.3168 12.6277 20.3304 12.6976 20.3285 12.7679V13.0124H22.4727V12.3756C22.4727 11.9055 22.4024 11.5283 22.2617 11.2442C22.1347 10.9749 21.9302 10.7492 21.6743 10.596C21.4022 10.4411 21.1016 10.3425 20.7904 10.3061C20.4255 10.2589 20.0578 10.2361 19.6898 10.2378H16.9069V9.81708H19.6898V7.67935H16.9069V7.24721H19.6898C20.0923 7.25084 20.4946 7.22424 20.8931 7.16765C21.2391 7.11452 21.53 7.0046 21.7656 6.83788C22.0013 6.67103 22.1781 6.43413 22.2959 6.12716C22.4139 5.82015 22.4728 5.41269 22.4727 4.90479V4.47266H20.3285V4.71286C20.33 4.78379 20.3164 4.85423 20.2886 4.91954C20.2627 4.97821 20.2188 5.02713 20.1631 5.05917C20.1061 5.09255 20.0206 5.10931 19.9065 5.10943H16.9069V4.47266H14.7627V7.67935H14.0794V4.47266H11.9352V5.10943H8.93559C8.82152 5.10943 8.73598 5.09268 8.67896 5.05917C8.6233 5.02713 8.57934 4.97821 8.55349 4.91954C8.5257 4.85423 8.5121 4.78379 8.51358 4.71286V4.47266H6.36936V4.90479C6.36936 5.41256 6.42829 5.82002 6.54615 6.12716C6.66394 6.43418 6.84073 6.67108 7.0765 6.83788C7.31208 7.00453 7.60291 7.11446 7.949 7.16765C8.34752 7.22424 8.74975 7.25084 9.15228 7.24721H11.9352V7.67935H9.15228V9.81708H11.9352V10.2378H9.15228C8.78429 10.2361 8.41659 10.2589 8.05165 10.3061C7.74046 10.3425 7.43984 10.4411 7.16774 10.596C6.91183 10.7492 6.70738 10.9749 6.58036 11.2442C6.43958 11.5284 6.36925 11.9056 6.36936 12.3756V13.0124H8.51358V12.7679C8.51166 12.6976 8.52528 12.6277 8.55348 12.5632C8.58037 12.506 8.62415 12.4584 8.67896 12.4268C8.73597 12.3927 8.82151 12.3756 8.93558 12.3756H11.9352V12.764H11.9336V13.4008H11.2862V12.764H9.15072V13.4008H6.36781V15.5385H9.15072V15.7887C8.68685 15.8644 8.28196 16.0103 7.93606 16.2264C7.59783 16.4353 7.30345 16.7075 7.06923 17.0281C6.83295 17.3552 6.65544 17.7207 6.5446 18.1084C6.42496 18.5223 6.36542 18.9512 6.36781 19.382H8.29531C8.2953 19.2144 8.30865 19.0471 8.33523 18.8816C8.3607 18.7185 8.40868 18.5597 8.47779 18.4097C8.54491 18.2638 8.63761 18.1309 8.75152 18.0174C8.8741 17.8985 9.02235 17.809 9.18493 17.7559C9.21309 17.9842 9.28676 18.2046 9.40163 18.4041C9.51323 18.5981 9.65798 18.7713 9.82935 18.9157C10.0013 19.0602 10.1958 19.1754 10.4053 19.2569C10.6197 19.3405 10.848 19.383 11.0782 19.382H14.0778V13.0124H14.0794V9.81708H14.7627V13.0124H14.7642V19.382H17.7639C17.9941 19.383 18.2224 19.3405 18.4368 19.2569C18.6462 19.1754 18.8408 19.0602 19.0127 18.9157C19.1841 18.7713 19.3288 18.5981 19.4404 18.4041C19.5553 18.2046 19.629 17.9842 19.6571 17.7559C19.8197 17.809 19.968 17.8985 20.0906 18.0174C20.2045 18.1309 20.2972 18.2638 20.3643 18.4097C20.4334 18.5597 20.4814 18.7185 20.5068 18.8816C20.5334 19.0471 20.5468 19.2144 20.5468 19.382H22.4743C22.4767 18.9512 22.4171 18.5223 22.2975 18.1084C22.1866 17.7207 22.0091 17.3552 21.7728 17.0281C21.5386 16.7075 21.2443 16.4353 20.906 16.2265C20.5601 16.0104 20.1552 15.8645 19.6914 15.7887V15.5385H22.4743ZM11.9336 17.2442H11.0782V15.5385H11.9336V17.2442ZM17.7639 17.2442H16.9084V15.5385H17.7639V17.2442Z" fill="white"/>
</svg>
